<svg width="745" height="450" viewBox="0 0 745 450" fill="none" xmlns="http://www.w3.org/2000/svg">
<g clip-path="url(#clip0_218_65)">
<path d="M725.24 449.141C793.474 328.445 662.599 266.631 645.754 394.084C644.9 377.636 643.997 360.923 638.533 345.386C630.235 313.154 585.148 289.797 563.613 322.425C552.229 342.642 567.326 371.002 554.234 390.159C545.976 341.945 475.971 353.255 483.342 401.632C488.876 424.874 513.432 438.399 533.033 448.914L725.24 449.141Z" fill="#A4A4A4"/>
<path d="M493.369 372.427C528.006 383.666 571.291 402.598 574.803 443.978C574.904 445.618 577.471 445.629 577.369 443.977C576.472 429.366 569.351 415.995 559.491 405.42C548.681 393.826 534.672 385.908 520.208 379.764C517.382 379.11 487.945 365.185 493.369 372.427Z" fill="#474747"/>
<path d="M580.877 311.904C604.848 351.931 616.253 398.23 613.618 444.811C613.522 446.461 616.089 446.455 616.184 444.811C618.227 408.199 611.707 371.615 597.141 337.963C595.505 334.951 582.308 303.235 580.877 311.904Z" fill="#474747"/>
<path d="M706.494 326.647C689.596 364.639 679.136 405.178 675.543 446.604C675.399 448.249 677.967 448.239 678.109 446.604C680.905 414.661 687.809 383.213 698.65 353.036C698.619 349.675 713.412 322.394 706.494 326.647Z" fill="#474747"/>
<path d="M409.2 447.065C428.733 412.515 391.269 394.82 386.447 431.304C386.202 426.596 385.943 421.812 384.379 417.364C382.004 408.137 369.098 401.451 362.933 410.791C359.674 416.579 363.996 424.697 360.248 430.181C357.884 416.379 337.845 419.617 339.955 433.465C341.539 440.118 348.568 443.99 354.179 447L409.2 447.065Z" fill="#A4A4A4"/>
<path d="M342.825 425.105C352.74 428.322 365.131 433.742 366.136 445.587C366.165 446.057 366.9 446.06 366.871 445.587C366.492 441.427 364.684 437.526 361.753 434.55C358.559 431.342 354.728 428.84 350.508 427.205C349.699 427.018 341.272 423.032 342.825 425.105Z" fill="#474747"/>
<path d="M367.875 407.78C374.737 419.238 378.002 432.491 377.247 445.825C377.22 446.298 377.955 446.296 377.982 445.825C378.567 435.345 376.7 424.872 372.531 415.239C372.062 414.377 368.285 405.298 367.875 407.78Z" fill="#474747"/>
<path d="M403.834 412C398.997 422.876 396.002 434.48 394.974 446.339C394.933 446.81 395.668 446.807 395.709 446.339C396.509 437.195 398.485 428.192 401.588 419.554C401.58 418.592 405.814 410.783 403.834 412Z" fill="#474747"/>
<path d="M284 19H1C0.734784 19 0.480429 18.8946 0.292892 18.7071C0.105356 18.5196 0 18.2652 0 18C0 17.7348 0.105356 17.4804 0.292892 17.2929C0.480429 17.1054 0.734784 17 1 17H284C284.265 17 284.52 17.1054 284.707 17.2929C284.895 17.4804 285 17.7348 285 18C285 18.2652 284.895 18.5196 284.707 18.7071C284.52 18.8946 284.265 19 284 19Z" fill="#3F3D56"/>
<path d="M225.799 34C235.188 34 242.799 26.3888 242.799 17C242.799 7.61116 235.188 0 225.799 0C216.41 0 208.799 7.61116 208.799 17C208.799 26.3888 216.41 34 225.799 34Z" fill="#F70909"/>
<path d="M284 83H1C0.734784 83 0.480429 82.8947 0.292892 82.7071C0.105356 82.5196 0 82.2652 0 82C0 81.7348 0.105356 81.4804 0.292892 81.2929C0.480429 81.1054 0.734784 81 1 81H284C284.265 81 284.52 81.1054 284.707 81.2929C284.895 81.4804 285 81.7348 285 82C285 82.2652 284.895 82.5196 284.707 82.7071C284.52 82.8947 284.265 83 284 83Z" fill="#3F3D56"/>
<path d="M67.7993 98C77.1882 98 84.7993 90.3888 84.7993 81C84.7993 71.6112 77.1882 64 67.7993 64C58.4105 64 50.7993 71.6112 50.7993 81C50.7993 90.3888 58.4105 98 67.7993 98Z" fill="#F70909"/>
<path d="M284 147H1C0.734784 147 0.480429 146.895 0.292892 146.707C0.105356 146.52 0 146.265 0 146C0 145.735 0.105356 145.48 0.292892 145.293C0.480429 145.105 0.734784 145 1 145H284C284.265 145 284.52 145.105 284.707 145.293C284.895 145.48 285 145.735 285 146C285 146.265 284.895 146.52 284.707 146.707C284.52 146.895 284.265 147 284 147Z" fill="#3F3D56"/>
<path d="M134.799 162C144.188 162 151.799 154.389 151.799 145C151.799 135.611 144.188 128 134.799 128C125.41 128 117.799 135.611 117.799 145C117.799 154.389 125.41 162 134.799 162Z" fill="#F70909"/>
<path d="M413.564 157.166C413.915 157.643 414.228 158.146 414.5 158.672L467.207 164.598L474.872 154.242L492.015 163.767L476.925 188.925L412.352 171.978C410.709 173.558 408.624 174.6 406.374 174.966C404.124 175.331 401.816 175.003 399.757 174.026C397.698 173.048 395.986 171.466 394.848 169.492C393.709 167.517 393.199 165.242 393.385 162.97C393.571 160.699 394.444 158.537 395.888 156.774C397.333 155.01 399.279 153.728 401.47 153.098C403.66 152.468 405.991 152.52 408.151 153.247C410.312 153.973 412.2 155.341 413.564 157.166Z" fill="#FFB8B8"/>
<path d="M488.269 172.777C487.845 172.591 487.449 172.344 487.095 172.045L465.912 154.2C465.403 153.771 464.988 153.241 464.694 152.644C464.4 152.046 464.233 151.395 464.204 150.73C464.175 150.064 464.284 149.4 464.525 148.78C464.766 148.159 465.133 147.595 465.603 147.123L484.825 127.821C485.632 127.004 486.706 126.504 487.851 126.413C488.997 126.322 490.136 126.645 491.063 127.325L505.599 137.881C506.507 138.54 507.155 139.495 507.433 140.582C507.711 141.668 507.601 142.818 507.122 143.832L494.547 170.421C494.011 171.552 493.057 172.431 491.885 172.871C490.713 173.31 489.417 173.277 488.269 172.777Z" fill="#F70909"/>
<path d="M570.892 425.157L558.24 428.599L538.942 381.438L557.614 376.358L570.892 425.157Z" fill="#FFB8B8"/>
<path d="M547.222 427.712L572.62 420.801L576.8 436.164L537.037 446.983L536.766 445.985C535.729 442.175 536.249 438.109 538.21 434.683C540.17 431.256 543.412 428.748 547.222 427.712Z" fill="#2F2E41"/>
<path d="M462.735 434.811L449.624 434.81L443.386 384.237L462.738 384.238L462.735 434.811Z" fill="#FFB8B8"/>
<path d="M439.224 431.064H465.545V446.985H424.337V445.951C424.337 442.002 425.905 438.216 428.697 435.424C431.489 432.632 435.276 431.064 439.224 431.064Z" fill="#2F2E41"/>
<path d="M501.061 93.2066C511.319 82.9485 511.319 66.3169 501.061 56.0588C490.803 45.8007 474.171 45.8007 463.913 56.0588C453.655 66.3169 453.655 82.9485 463.913 93.2066C474.171 103.465 490.803 103.465 501.061 93.2066Z" fill="#FFB8B8"/>
<path d="M461.932 398.752H444.015C442.79 398.75 441.612 398.282 440.719 397.444C439.826 396.605 439.286 395.459 439.207 394.236C433.868 309.361 436.991 248.478 449.035 202.636C449.088 202.435 449.153 202.238 449.23 202.046L450.19 199.647C450.544 198.752 451.16 197.985 451.957 197.445C452.754 196.905 453.696 196.618 454.658 196.621H491.504C492.198 196.621 492.884 196.771 493.515 197.061C494.146 197.351 494.706 197.774 495.158 198.302L500.163 204.141C500.26 204.255 500.352 204.371 500.44 204.493C523.007 235.963 543.231 297.488 566.653 380.185C566.999 381.387 566.862 382.676 566.271 383.778C565.68 384.88 564.682 385.708 563.489 386.085L544.234 392.247C543.128 392.595 541.934 392.535 540.87 392.077C539.805 391.619 538.94 390.795 538.432 389.753L488.463 286.113C488.113 285.388 487.54 284.796 486.828 284.423C486.115 284.05 485.301 283.916 484.507 284.042C483.713 284.167 482.98 284.545 482.417 285.12C481.854 285.694 481.492 286.434 481.382 287.231L466.701 394.591C466.539 395.743 465.968 396.797 465.093 397.561C464.217 398.326 463.095 398.749 461.932 398.752Z" fill="#2F2E41"/>
<path d="M498.143 204.568C498.092 204.568 498.042 204.567 497.992 204.566L453.236 203.153C452.085 203.121 450.984 202.676 450.134 201.9C449.285 201.123 448.742 200.067 448.606 198.924C442.933 152.999 458.493 140.696 465.446 137.539C466.027 137.277 466.53 136.869 466.907 136.355C467.284 135.841 467.522 135.238 467.598 134.605L468.199 129.791C468.302 128.941 468.63 128.134 469.15 127.454C480.052 113.332 494.938 108.809 502.842 107.371C503.483 107.256 504.14 107.272 504.775 107.419C505.41 107.566 506.008 107.84 506.533 108.225C507.058 108.61 507.5 109.098 507.83 109.659C508.161 110.22 508.375 110.842 508.458 111.488L509.359 118.4C509.451 119.059 509.714 119.683 510.122 120.209C532.858 149.932 507.529 193.818 502.221 202.313C501.787 203.003 501.185 203.572 500.472 203.966C499.759 204.36 498.958 204.568 498.143 204.568Z" fill="#F70909"/>
<path d="M493.968 269.844C495.343 268.88 496.49 267.625 497.328 266.17C498.166 264.714 498.675 263.092 498.818 261.419C498.962 259.745 498.736 258.061 498.158 256.484C497.58 254.907 496.663 253.476 495.472 252.291L503.786 151.898L479.034 155.303L478.563 252.844C476.706 254.977 475.695 257.717 475.723 260.545C475.751 263.372 476.816 266.091 478.715 268.187C480.614 270.282 483.215 271.608 486.027 271.914C488.838 272.219 491.664 271.483 493.968 269.844Z" fill="#FFB8B8"/>
<path d="M505.403 166.354C504.94 166.354 504.478 166.287 504.034 166.156L477.462 158.34C476.823 158.153 476.23 157.834 475.721 157.406C475.211 156.977 474.796 156.448 474.502 155.85C474.208 155.253 474.041 154.601 474.012 153.936C473.982 153.271 474.091 152.607 474.332 151.986L484.165 126.582C484.575 125.509 485.358 124.619 486.369 124.075C487.381 123.531 488.554 123.369 489.676 123.618L507.231 127.434C508.327 127.673 509.305 128.287 509.997 129.169C510.688 130.052 511.05 131.149 511.019 132.27L510.203 161.672C510.168 162.923 509.647 164.111 508.751 164.985C507.855 165.859 506.655 166.35 505.403 166.354Z" fill="#F70909"/>
<path d="M727.016 449H346.016C345.75 449 345.496 448.895 345.309 448.707C345.121 448.52 345.016 448.265 345.016 448C345.016 447.735 345.121 447.48 345.309 447.293C345.496 447.105 345.75 447 346.016 447H727.016C727.281 447 727.535 447.105 727.723 447.293C727.91 447.48 728.016 447.735 728.016 448C728.016 448.265 727.91 448.52 727.723 448.707C727.535 448.895 727.281 449 727.016 449Z" fill="#3F3D56"/>
<path d="M511.388 58.2963C509.437 52.3821 507.997 46.3114 507.083 40.151C506.796 36.5645 507.715 32.7054 510.327 30.2308C515.215 25.5997 523.52 27.8054 528.631 32.1883C536.019 38.5226 539.704 48.257 541.096 57.8883C542.489 67.5196 541.876 77.3137 542.211 87.0394C542.546 96.7651 543.937 106.765 548.896 115.139C553.854 123.512 563.055 129.94 572.76 129.227C576.678 129.016 580.398 127.439 583.274 124.772C584.686 123.428 585.756 121.766 586.393 119.924C587.03 118.082 587.216 116.114 586.936 114.186C591.896 123.068 589.381 135.107 581.982 142.089C574.583 149.072 563.202 151.046 553.475 148.065C543.748 145.083 535.743 137.608 530.961 128.628C526.179 119.648 524.426 109.275 524.68 99.1045C524.875 91.2943 526.203 83.4203 524.883 75.72C523.563 68.0197 518.744 60.201 511.145 58.3877L511.388 58.2963Z" fill="#2F2E41"/>
<path d="M477.261 68.4201C475.966 72.7483 471.01 75.4171 466.552 74.6851C462.093 73.9531 458.427 70.2817 457.073 65.9717C455.848 61.5696 456.35 56.8661 458.475 52.8211C459.646 50.3966 461.283 48.2268 463.294 46.4359C465.305 44.645 467.649 43.2682 470.192 42.3843C472.75 41.5366 475.474 41.3161 478.134 41.7413C480.795 42.1664 483.315 43.2248 485.481 44.8272C485.712 43.8549 486.197 42.9617 486.888 42.2394C487.578 41.5172 488.449 40.992 489.41 40.718C491.345 40.1965 493.388 40.2267 495.307 40.805C500.836 42.3808 505.628 45.8665 508.829 50.6424C511.99 55.4035 514.081 60.7933 514.958 66.4403C516.466 74.9089 515.91 84.1627 511.154 91.3301C506.398 98.4975 496.667 102.73 488.773 99.3126C488.281 96.7961 489.447 94.2623 490.796 92.0818C492.145 89.9013 493.744 87.7771 494.262 85.2659C494.78 82.7547 493.787 79.683 491.358 78.8618C489.285 78.1612 487.076 79.2963 484.893 79.4333C483.653 79.5112 482.414 79.2616 481.302 78.7097C480.189 78.1578 479.24 77.3229 478.552 76.2889C477.864 75.2548 477.459 74.0579 477.379 72.8182C477.3 71.5785 477.547 70.3397 478.097 69.2259L477.261 68.4201Z" fill="#2F2E41"/>
</g>
<defs>
<clipPath id="clip0_218_65">
<rect width="744.799" height="449.141" fill="white"/>
</clipPath>
</defs>
</svg>
