<svg width="80" height="100" viewBox="0 0 80 100" fill="none" xmlns="http://www.w3.org/2000/svg">
<g clip-path="url(#clip0_208_74)">
<mask id="mask0_208_74" style="mask-type:alpha" maskUnits="userSpaceOnUse" x="9" y="3" width="65" height="94">
<rect x="11.8328" y="5" width="60" height="90" rx="9" stroke="black" stroke-width="4"/>
</mask>
<g mask="url(#mask0_208_74)">
<path fill-rule="evenodd" clip-rule="evenodd" d="M79.8328 -2H3.83282V62C34.3328 79.5 39.3328 81.5 79.8328 62V-2ZM79.8328 101H3.83282V103.5H79.8328V101Z" fill="white"/>
</g>
<circle cx="41.3328" cy="15.5" r="3.5" fill="white"/>
<path d="M58.8328 44L33.3328 58.7224L33.3328 29.2776L58.8328 44Z" fill="white"/>
<path d="M43.247 82.4142C44.0281 81.6332 44.0281 80.3668 43.247 79.5858L30.5191 66.8579C29.7381 66.0768 28.4717 66.0768 27.6907 66.8579C26.9096 67.6389 26.9096 68.9052 27.6907 69.6863L39.0044 81L27.6907 92.3137C26.9096 93.0948 26.9096 94.3611 27.6907 95.1421C28.4717 95.9232 29.7381 95.9232 30.5191 95.1421L43.247 82.4142ZM1.3573 63.8119C1.84145 66.8782 3.9185 69.5553 6.59293 71.7798C9.30065 74.032 12.8498 76.0143 16.7435 77.6555C24.5222 80.9341 34.0356 83 41.8328 83L41.8328 79C34.6301 79 25.6435 77.0659 18.2971 73.9695C14.6283 72.4232 11.4587 70.6242 9.15084 68.7046C6.80965 66.7572 5.5742 64.8718 5.30835 63.1881L1.3573 63.8119Z" fill="white"/>
<path d="M49.8328 81.0001C55.3328 81.0001 69.8329 76 77.3328 68" stroke="white" stroke-width="4" stroke-linecap="square"/>
</g>
<defs>
<clipPath id="clip0_208_74">
<rect width="80" height="100" fill="white"/>
</clipPath>
</defs>
</svg>
