<svg width="276" height="41" viewBox="0 0 276 41" fill="none" xmlns="http://www.w3.org/2000/svg">
<g clip-path="url(#clip0_160_2)">
<g clip-path="url(#clip1_160_2)">
<path d="M25.0949 39.571C24.7487 39.571 24.4058 39.5611 24.064 39.5435C27.1246 39.4286 30.123 38.645 32.8484 37.2476C35.5738 35.8502 37.9602 33.873 39.8398 31.4548C37.7027 33.9534 34.9735 35.8764 31.9015 37.0481C28.8295 38.2198 25.5128 38.6027 22.2546 38.1619C13.6225 36.9899 7.05657 30.3522 5.55374 22.2151C5.53389 22.0453 5.51515 21.8755 5.49971 21.7046L8.55168 24.299L4.0873 15.8311L0 23.9881L2.64621 21.8446C2.66937 21.9935 2.69362 22.1412 2.72009 22.2856C3.82267 32.7868 12.7338 40.9967 23.5226 40.9967C27.1895 40.9945 30.7915 40.0291 33.9679 38.1969C37.1443 36.3648 39.7836 33.7303 41.6216 30.5573C39.8401 33.3217 37.3939 35.5952 34.5067 37.1699C31.6195 38.7445 28.3836 39.5701 25.0949 39.571Z" fill="white"/>
<path d="M43.3582 19.1554C43.335 19.0065 43.3096 18.8588 43.2832 18.7143C42.1762 8.20992 33.2706 0 22.4806 0C18.8138 0.00238055 15.2119 0.967953 12.0355 2.80005C8.85918 4.63215 6.21981 7.2665 4.38165 10.4394C6.16383 7.67698 8.60995 5.40533 11.4964 3.83207C14.3829 2.25881 17.6177 1.43412 20.905 1.43337C21.2513 1.43337 21.5942 1.4433 21.936 1.46094C18.8757 1.57527 15.8776 2.35823 13.1522 3.75484C10.4268 5.15145 8.04024 7.12783 6.16013 9.54517C8.29739 7.04688 11.0267 5.12413 14.0987 3.95266C17.1707 2.78119 20.4873 2.39836 23.7453 2.83918C32.3775 4.01014 38.95 10.6489 40.4462 18.7849C40.4661 18.9547 40.4859 19.1245 40.5014 19.2954L37.4483 16.701L41.9127 25.1689L46 17.0097L43.3582 19.1554Z" fill="white"/>
</g>
<path d="M103.08 7.08L95.28 35H88.68L83.44 15.12L77.96 35L71.4 35.04L63.88 7.08H69.88L74.8 28.76L80.48 7.08H86.72L92.08 28.64L97.04 7.08H103.08ZM105.297 23.84C105.297 21.6 105.737 19.6133 106.617 17.88C107.523 16.1467 108.737 14.8133 110.257 13.88C111.803 12.9467 113.523 12.48 115.417 12.48C117.07 12.48 118.51 12.8133 119.737 13.48C120.99 14.1467 121.99 14.9867 122.737 16V12.84H128.377V35H122.737V31.76C122.017 32.8 121.017 33.6667 119.737 34.36C118.483 35.0267 117.03 35.36 115.377 35.36C113.51 35.36 111.803 34.88 110.257 33.92C108.737 32.96 107.523 31.6133 106.617 29.88C105.737 28.12 105.297 26.1067 105.297 23.84ZM122.737 23.92C122.737 22.56 122.47 21.4 121.937 20.44C121.403 19.4533 120.683 18.7067 119.777 18.2C118.87 17.6667 117.897 17.4 116.857 17.4C115.817 17.4 114.857 17.6533 113.977 18.16C113.097 18.6667 112.377 19.4133 111.817 20.4C111.283 21.36 111.017 22.5067 111.017 23.84C111.017 25.1733 111.283 26.3467 111.817 27.36C112.377 28.3467 113.097 29.1067 113.977 29.64C114.883 30.1733 115.843 30.44 116.857 30.44C117.897 30.44 118.87 30.1867 119.777 29.68C120.683 29.1467 121.403 28.4 121.937 27.44C122.47 26.4533 122.737 25.28 122.737 23.92ZM140.366 17.44V28.16C140.366 28.9067 140.539 29.4533 140.886 29.8C141.259 30.12 141.873 30.28 142.726 30.28H145.326V35H141.806C137.086 35 134.726 32.7067 134.726 28.12V17.44H132.086V12.84H134.726V7.36H140.366V12.84H145.326V17.44H140.366ZM147.914 23.92C147.914 21.6267 148.38 19.6267 149.314 17.92C150.247 16.1867 151.54 14.8533 153.194 13.92C154.847 12.96 156.74 12.48 158.874 12.48C161.62 12.48 163.887 13.1733 165.674 14.56C167.487 15.92 168.7 17.84 169.314 20.32H163.274C162.954 19.36 162.407 18.6133 161.634 18.08C160.887 17.52 159.954 17.24 158.834 17.24C157.234 17.24 155.967 17.8267 155.034 19C154.1 20.1467 153.634 21.7867 153.634 23.92C153.634 26.0267 154.1 27.6667 155.034 28.84C155.967 29.9867 157.234 30.56 158.834 30.56C161.1 30.56 162.58 29.5467 163.274 27.52H169.314C168.7 29.92 167.487 31.8267 165.674 33.24C163.86 34.6533 161.594 35.36 158.874 35.36C156.74 35.36 154.847 34.8933 153.194 33.96C151.54 33 150.247 31.6667 149.314 29.96C148.38 28.2267 147.914 26.2133 147.914 23.92ZM185.896 12.52C187.576 12.52 189.07 12.8933 190.376 13.64C191.683 14.36 192.696 15.44 193.416 16.88C194.163 18.2933 194.536 20 194.536 22V35H188.936V22.76C188.936 21 188.496 19.6533 187.616 18.72C186.736 17.76 185.536 17.28 184.016 17.28C182.47 17.28 181.243 17.76 180.336 18.72C179.456 19.6533 179.016 21 179.016 22.76V35H173.416V5.4H179.016V15.6C179.736 14.64 180.696 13.8933 181.896 13.36C183.096 12.8 184.43 12.52 185.896 12.52ZM205.462 30.56H214.662V35H199.862V7.08H205.462V30.56ZM221.061 10.2C220.074 10.2 219.248 9.89333 218.581 9.28C217.941 8.64 217.621 7.85333 217.621 6.92C217.621 5.98667 217.941 5.21333 218.581 4.6C219.248 3.96 220.074 3.64 221.061 3.64C222.048 3.64 222.861 3.96 223.501 4.6C224.168 5.21333 224.501 5.98667 224.501 6.92C224.501 7.85333 224.168 8.64 223.501 9.28C222.861 9.89333 222.048 10.2 221.061 10.2ZM223.821 12.84V35H218.221V12.84H223.821ZM241.634 12.52C244.274 12.52 246.407 13.36 248.034 15.04C249.66 16.6933 250.474 19.0133 250.474 22V35H244.874V22.76C244.874 21 244.434 19.6533 243.554 18.72C242.674 17.76 241.474 17.28 239.954 17.28C238.407 17.28 237.18 17.76 236.274 18.72C235.394 19.6533 234.954 21 234.954 22.76V35H229.354V12.84H234.954V15.6C235.7 14.64 236.647 13.8933 237.794 13.36C238.967 12.8 240.247 12.52 241.634 12.52ZM268.919 35L261.399 25.56V35H255.799V5.4H261.399V22.24L268.839 12.84H276.119L266.359 23.96L276.199 35H268.919Z" fill="white"/>
</g>
<defs>
<clipPath id="clip0_160_2">
<rect width="276" height="41" fill="white"/>
</clipPath>
<clipPath id="clip1_160_2">
<rect width="46" height="41" fill="white"/>
</clipPath>
</defs>
</svg>
