<svg xmlns="http://www.w3.org/2000/svg" viewBox="0 0 417.2 371.85"><defs><style>.cls-1{fill:#231f20;}</style></defs><g id="Layer_2" data-name="Layer 2"><g id="Layer_1-2" data-name="Layer 1"><path class="cls-1" d="M227.6,358.89c-3.14,0-6.25-.09-9.35-.25a190.26,190.26,0,0,0,143.08-73.36,178.4,178.4,0,0,1-159.49,60.83C123.55,335.48,64,275.28,50.37,201.48c-.18-1.54-.35-3.08-.49-4.63l27.68,23.53-40.49-76.8L0,217.56l24-19.44c.21,1.35.43,2.69.67,4,10,95.24,90.82,169.7,188.67,169.7a189.83,189.83,0,0,0,164.15-94.68A178.38,178.38,0,0,1,227.6,358.89Z"/><path class="cls-1" d="M393.24,173.73c-.21-1.35-.44-2.69-.68-4C382.52,74.46,301.75,0,203.89,0A189.85,189.85,0,0,0,39.74,94.68,178.39,178.39,0,0,1,189.6,13c3.14,0,6.25.09,9.35.25A190.26,190.26,0,0,0,55.87,86.57,178.41,178.41,0,0,1,215.36,25.75c78.29,10.62,137.9,70.83,151.47,144.62.18,1.54.36,3.08.5,4.63l-27.69-23.53,40.49,76.8,37.07-74Z"/></g></g></svg>