<svg width="1058" height="748" viewBox="0 0 1058 748" fill="none" xmlns="http://www.w3.org/2000/svg">
<g clip-path="url(#clip0_215_2)">
<path d="M449.465 318.912C447.804 317.69 446.218 316.368 444.715 314.956L446.772 312.771C448.186 314.101 449.679 315.345 451.243 316.496L449.465 318.912Z" fill="black"/>
<path d="M436.463 304.878C434.162 301.177 432.35 297.194 431.07 293.027L433.938 292.147C435.142 296.065 436.847 299.812 439.01 303.294L436.463 304.878ZM428.868 280.199C428.838 279.49 428.824 278.78 428.823 278.069C428.824 274.425 429.217 270.79 429.996 267.23L432.927 267.872C432.193 271.222 431.824 274.641 431.824 278.069C431.824 278.738 431.838 279.406 431.866 280.073L428.868 280.199ZM437.075 256.353L434.407 254.98C435.646 252.576 437.074 250.274 438.677 248.095C439.66 246.759 440.723 245.483 441.859 244.274L444.044 246.328C442.991 247.45 442.005 248.633 441.093 249.873C439.585 251.923 438.241 254.09 437.075 256.353ZM453.67 238.95L452.254 236.306C456.126 234.231 460.308 232.795 464.638 232.053L465.146 235.01C461.134 235.698 457.259 237.028 453.67 238.95ZM488.818 238.623C485.2 236.76 481.303 235.499 477.279 234.889L477.73 231.923C482.075 232.582 486.283 233.944 490.19 235.955L488.818 238.623Z" fill="black"/>
<path d="M501.894 250.495C500.912 248.862 499.775 247.327 498.5 245.912L500.728 243.903C502.132 245.462 503.383 247.151 504.465 248.949L501.894 250.495Z" fill="black"/>
<path d="M386.886 218.579L384.47 216.802C385.67 215.17 386.935 213.556 388.23 212.005L390.533 213.928C389.277 215.432 388.05 216.997 386.886 218.579Z" fill="black"/>
<path d="M535.523 215.11C533.218 211.911 530.664 208.899 527.886 206.101L530.014 203.986C532.904 206.897 535.56 210.03 537.957 213.358L535.523 215.11ZM398.696 205.312L396.652 203.116C399.643 200.333 402.807 197.742 406.124 195.358L407.874 197.794C404.66 200.105 401.595 202.616 398.696 205.312ZM518.93 198.395C515.738 196.052 512.405 193.91 508.949 191.98L510.41 189.36C513.975 191.351 517.413 193.56 520.705 195.977L518.93 198.395ZM417.927 191.496L416.499 188.858C420.09 186.914 423.801 185.196 427.607 183.716L428.694 186.512C425.004 187.947 421.408 189.611 417.927 191.496ZM498.248 186.865C494.576 185.388 490.815 184.144 486.987 183.141L487.748 180.238C491.698 181.274 495.579 182.558 499.368 184.082L498.248 186.865ZM440 182.916L439.271 180.006C443.233 179.015 447.252 178.272 451.306 177.779L451.667 180.758C447.737 181.235 443.84 181.956 440 182.916ZM475.347 180.865C471.422 180.353 467.468 180.087 463.51 180.069L463.524 177.069C467.608 177.088 471.686 177.363 475.735 177.891L475.347 180.865Z" fill="black"/>
<path d="M544.087 230.582C543.349 228.772 542.531 226.971 541.655 225.23L544.335 223.882C545.246 225.694 546.097 227.567 546.865 229.448L544.087 230.582Z" fill="black"/>
<path d="M552.309 406.877L551.278 404.06C553.127 403.383 554.989 402.659 556.814 401.908L557.957 404.682C556.095 405.449 554.195 406.187 552.309 406.877Z" fill="black"/>
<path d="M505.535 416.042L505.426 413.044C509.318 412.901 513.253 412.603 517.12 412.157L517.464 415.137C513.519 415.592 509.506 415.896 505.535 416.042ZM493.573 416.006C489.598 415.838 485.587 415.509 481.65 415.029L482.014 412.051C485.872 412.521 489.804 412.844 493.7 413.009L493.573 416.006ZM529.284 413.3L528.708 410.355C532.528 409.607 536.368 408.697 540.118 407.651L540.924 410.541C537.098 411.608 533.182 412.536 529.284 413.3ZM469.842 413.112C465.949 412.321 462.039 411.363 458.223 410.266L459.052 407.383C462.792 408.458 466.624 409.397 470.44 410.173L469.842 413.112ZM446.866 406.505C443.148 405.107 439.44 403.542 435.844 401.853L437.12 399.138C440.643 400.793 444.278 402.327 447.921 403.697L446.866 406.505ZM425.227 396.343C421.787 394.381 418.372 392.252 415.078 390.015L416.764 387.533C419.993 389.727 423.341 391.813 426.713 393.736L425.227 396.343Z" fill="black"/>
<path d="M405.428 382.857C403.863 381.579 402.313 380.248 400.82 378.901L402.829 376.673C404.286 377.988 405.799 379.287 407.326 380.534L405.428 382.857Z" fill="black"/>
<path d="M322.38 80.3722L320.839 77.798C322.562 76.7667 324.318 75.7457 326.059 74.7633L327.534 77.3756C325.815 78.3459 324.081 79.3536 322.38 80.3722Z" fill="black"/>
<path d="M611.175 121.343C608.605 118.349 605.9 115.396 603.135 112.566L605.281 110.469C608.09 113.345 610.839 116.346 613.452 119.389L611.175 121.343ZM594.547 104.322C591.616 101.683 588.556 99.0983 585.451 96.6412L587.313 94.2887C590.467 96.7853 593.576 99.4108 596.555 102.092L594.547 104.322ZM575.889 89.5319C572.644 87.2536 569.306 85.0324 565.966 82.9308L567.564 80.3918C570.946 82.5202 574.327 84.7692 577.613 87.0768L575.889 89.5319ZM555.723 76.8434C552.274 74.9108 548.727 73.0412 545.181 71.2863L546.512 68.5978C550.103 70.3747 553.696 72.2687 557.189 74.2262L555.723 76.8434ZM338.066 71.7838L336.728 69.0993C340.316 67.3107 343.998 65.5919 347.673 63.9904L348.871 66.7404C345.244 68.3214 341.608 70.0182 338.066 71.7838ZM534.368 66.2785C530.737 64.7082 527.016 63.2126 523.311 61.8332L524.358 59.0216C528.111 60.4191 531.88 61.9342 535.558 63.5246L534.368 66.2785ZM359.921 62.2575L358.865 59.4499C362.611 58.0402 366.45 56.7067 370.274 55.487L371.185 58.3454C367.41 59.5494 363.62 60.8659 359.921 62.2575ZM512.039 57.963C508.268 56.7765 504.413 55.672 500.581 54.6803L501.333 51.776C505.214 52.7804 509.119 53.8996 512.939 55.1017L512.039 57.963ZM382.635 55.0133L381.87 52.112C385.741 51.092 389.695 50.1564 393.623 49.3322L394.239 52.2677C390.361 53.0822 386.456 54.006 382.635 55.0133ZM488.969 51.9913C485.097 51.1989 481.149 50.4962 477.233 49.903L477.682 46.9371C481.649 47.5377 485.648 48.2496 489.57 49.0519L488.969 51.9913ZM405.967 50.1178L405.502 47.1539C409.457 46.5323 413.486 46.0035 417.476 45.5826L417.79 48.566C413.851 48.9821 409.873 49.504 405.967 50.1178ZM465.405 48.42C461.471 48.0284 457.471 47.734 453.515 47.544L453.659 44.548C457.665 44.7398 461.717 45.0382 465.702 45.4347L465.405 48.42ZM429.677 47.6183L429.515 44.6232C433.52 44.4059 437.582 44.2897 441.586 44.2775L441.596 47.2775C437.642 47.2897 433.632 47.4044 429.677 47.6183Z" fill="black"/>
<path d="M622.178 135.494C621.041 133.876 619.865 132.256 618.681 130.682L621.079 128.88C622.282 130.48 623.478 132.125 624.633 133.771L622.178 135.494Z" fill="black"/>
<path d="M485.567 620.635C483.578 620.38 481.589 620.108 479.602 619.819L480.033 616.851C482.004 617.136 483.976 617.406 485.949 617.66L485.567 620.635Z" fill="black"/>
<path d="M467.461 617.849C463.446 617.128 459.386 616.328 455.395 615.472L456.024 612.539C459.983 613.388 464.009 614.181 467.991 614.896L467.461 617.849ZM443.416 612.692C439.449 611.701 435.453 610.63 431.538 609.509L432.363 606.625C436.246 607.736 440.209 608.798 444.144 609.782L443.416 612.692ZM419.774 605.929C415.884 604.673 411.969 603.336 408.137 601.954L409.155 599.131C412.955 600.502 416.838 601.828 420.696 603.074L419.774 605.929ZM396.642 597.59C392.856 596.079 389.04 594.481 385.3 592.84L386.505 590.093C390.214 591.72 393.999 593.305 397.754 594.804L396.642 597.59ZM374.124 587.712C370.443 585.948 366.743 584.098 363.128 582.212L364.514 579.552C368.101 581.422 371.77 583.257 375.421 585.007L374.124 587.712ZM352.321 576.347C348.781 574.348 345.213 572.254 341.717 570.125L343.278 567.563C346.746 569.675 350.284 571.752 353.796 573.734L352.321 576.347ZM331.327 563.553C327.917 561.316 324.496 558.991 321.159 556.641L322.886 554.188C326.196 556.519 329.59 558.826 332.972 561.044L331.327 563.553ZM311.219 549.386C307.957 546.91 304.71 544.338 301.569 541.742L303.48 539.43C306.59 542 309.804 544.545 313.033 546.997L311.219 549.386ZM292.243 533.707C289.202 530.975 286.18 528.143 283.259 525.289L285.355 523.143C288.246 525.967 291.238 528.771 294.248 531.475L292.243 533.707ZM274.634 516.502C271.833 513.526 269.058 510.451 266.386 507.361L268.655 505.398C271.3 508.457 274.047 511.5 276.819 514.446L274.634 516.502ZM258.53 497.881C255.988 494.679 253.482 491.38 251.08 488.078L253.506 486.313C255.883 489.582 258.364 492.846 260.88 496.016L258.53 497.881Z" fill="black"/>
<path d="M244.014 477.917C242.901 476.241 241.806 474.556 240.73 472.862L243.262 471.254C244.327 472.931 245.411 474.598 246.512 476.257L244.014 477.917Z" fill="black"/>
<path d="M885.745 129.794L848.353 164.217L878.069 114.356C854.657 71.8998 816.367 35.2074 816.367 35.2074C816.367 35.2074 736.928 111.316 736.928 171.143C736.928 230.969 772.494 251.858 816.367 251.858C860.239 251.858 895.805 230.969 895.805 171.143C895.805 157.826 891.863 143.704 885.745 129.794Z" fill="#A4A4A4"/>
<path d="M838.736 166.081V169.03C838.561 203.308 832.78 230.053 821.437 248.885C821.276 249.162 821.101 249.425 820.94 249.702L819.67 248.929L818.459 248.17C831.043 227.834 835.495 199.089 835.656 169.191C835.671 168.227 835.685 167.249 835.671 166.271C835.627 153.614 834.853 140.811 833.612 128.373C833.525 127.409 833.422 126.431 833.32 125.453C831.598 109.044 829.116 93.365 826.576 79.7444C826.4 78.7808 826.211 77.8173 826.021 76.8683C821.627 53.8316 817.145 37.1454 816.123 33.4518C816.006 32.9993 815.933 32.7511 815.918 32.6928L817.305 32.2986L817.32 32.284L818.721 31.8898C818.736 31.9482 818.984 32.7804 819.393 34.3278C820.955 40.1088 825.014 55.8024 828.999 76.5034C829.174 77.4377 829.364 78.4013 829.539 79.3648C831.612 90.416 833.641 102.767 835.247 115.73C835.656 118.986 836.021 122.197 836.342 125.365C836.459 126.343 836.561 127.321 836.649 128.285C837.992 141.73 838.688 154.329 838.736 166.081Z" fill="#474747"/>
<path d="M828.999 76.5034C828.021 76.6348 827.028 76.7662 826.021 76.8684C823.285 77.15 820.537 77.2913 817.787 77.2918C806.067 77.3073 794.493 74.6932 783.918 69.6421C783.305 70.4158 782.692 71.1895 782.064 71.9778C793.189 77.4082 805.408 80.2245 817.787 80.2115C820.723 80.2107 823.656 80.0548 826.575 79.7444C827.568 79.6421 828.561 79.5107 829.539 79.3648C837.613 78.2067 845.464 75.8292 852.824 72.3136C852.196 71.5107 851.583 70.7223 850.984 69.9486C844.019 73.2042 836.61 75.413 828.999 76.5034Z" fill="#474747"/>
<path d="M836.342 125.365C835.335 125.424 834.327 125.453 833.32 125.453C833.014 125.467 832.692 125.467 832.386 125.467C819.687 125.468 807.176 122.397 795.92 116.517C784.664 110.638 774.997 102.124 767.743 91.7007C767.159 92.562 766.575 93.4233 766.006 94.2992C773.567 104.845 783.532 113.438 795.076 119.366C806.619 125.294 819.409 128.387 832.386 128.387C832.795 128.387 833.203 128.387 833.612 128.373C834.634 128.358 835.641 128.329 836.649 128.285C852.236 127.487 867.263 122.216 879.934 113.102C879.467 112.241 878.999 111.38 878.518 110.518C866.203 119.466 851.546 124.626 836.342 125.365Z" fill="#474747"/>
<path d="M838.736 166.081C837.714 166.169 836.692 166.227 835.671 166.271C834.576 166.315 833.481 166.344 832.386 166.344C815.322 166.324 798.723 160.778 785.075 150.535C771.427 140.292 761.464 125.905 756.677 109.526C756.02 110.708 755.363 111.876 754.735 113.059C760.129 129.399 770.534 143.625 784.474 153.715C798.413 163.805 815.178 169.245 832.386 169.264C833.481 169.264 834.576 169.249 835.656 169.191C836.692 169.161 837.714 169.103 838.736 169.03C859.377 167.415 878.634 158.017 892.605 142.738C892.299 141.657 891.948 140.592 891.598 139.511C878.103 154.905 859.141 164.435 838.736 166.081Z" fill="#474747"/>
<path d="M120.377 153.63L144.765 198.221L103.544 157.356C56.694 169.836 11.8491 198.145 11.8491 198.145C11.8491 198.145 66.5495 293.596 124.609 308.027C182.669 322.457 211.52 292.98 222.103 250.402C232.685 207.825 220.992 168.271 162.932 153.841C150.009 150.629 135.353 151.047 120.377 153.63Z" fill="#A4A4A4"/>
<path d="M144.254 208.003L147.116 208.715C180.34 217.153 204.9 229.214 220.44 244.765C220.671 244.987 220.884 245.221 221.114 245.444L220.057 246.49L219.028 247.482C202.328 230.365 175.506 219.11 146.529 211.743C145.597 211.496 144.652 211.246 143.699 211.024C131.405 208.014 118.793 205.676 106.423 203.88C105.467 203.733 104.493 203.596 103.519 203.46C87.1794 201.173 71.3647 199.8 57.5336 198.98C56.5562 198.917 55.5754 198.869 54.6087 198.825C31.1922 197.532 13.9176 197.857 10.0867 197.958C9.61932 197.962 9.36087 197.973 9.30067 197.973L9.25267 196.532L9.242 196.514L9.19751 195.059C9.25776 195.059 10.1252 195.019 11.7255 194.996C17.7126 194.874 33.9218 194.721 54.9728 195.846C55.9218 195.902 56.9027 195.95 57.88 196.012C69.1049 196.666 81.5803 197.676 94.5484 199.244C97.8064 199.633 101.011 200.054 104.163 200.506C105.141 200.629 106.114 200.765 107.071 200.913C120.443 202.852 132.838 205.216 144.254 208.003Z" fill="#474747"/>
<path d="M54.9728 195.846C54.8644 196.827 54.7525 197.822 54.6087 198.825C54.2221 201.547 53.6964 204.248 53.0336 206.917C50.2218 218.295 44.8932 228.896 37.4403 237.941C38.0433 238.723 38.6463 239.504 39.2599 240.304C47.2133 230.817 52.8937 219.639 55.8671 207.622C56.5744 204.772 57.1307 201.888 57.5336 198.98C57.6738 197.992 57.7857 196.997 57.88 196.012C58.7036 187.898 58.29 179.705 56.6535 171.714C55.7229 172.13 54.8099 172.535 53.9146 172.929C55.394 180.474 55.7505 188.197 54.9728 195.846Z" fill="#474747"/>
<path d="M104.163 200.506C103.977 201.497 103.762 202.482 103.519 203.46C103.46 203.761 103.382 204.072 103.308 204.37C100.245 216.694 94.2477 228.095 85.8267 237.6C77.4057 247.105 66.8111 254.433 54.946 258.959C55.641 259.734 56.3361 260.508 57.0488 261.272C69.1075 256.478 79.8505 248.88 88.3878 239.107C96.9251 229.334 103.011 217.668 106.142 205.074C106.24 204.677 106.339 204.281 106.423 203.881C106.656 202.885 106.87 201.901 107.071 200.913C110.056 185.593 108.565 169.738 102.777 155.243C101.828 155.489 100.88 155.735 99.9278 155.994C105.641 170.103 107.113 185.573 104.163 200.506Z" fill="#474747"/>
<path d="M144.254 208.003C144.093 209.016 143.903 210.022 143.699 211.024C143.477 212.097 143.242 213.167 142.978 214.23C138.843 230.785 129.456 245.556 116.224 256.33C102.992 267.105 86.6255 273.303 69.5756 273.998C70.5648 274.921 71.5397 275.84 72.5359 276.735C89.6952 275.442 106.011 268.775 119.165 257.681C132.319 246.586 141.643 231.629 145.811 214.934C146.075 213.871 146.325 212.805 146.529 211.743C146.751 210.73 146.941 209.724 147.116 208.715C150.528 188.293 146.052 167.339 134.594 150.094C133.471 150.131 132.353 150.214 131.22 150.293C142.904 167.103 147.579 187.804 144.254 208.003Z" fill="#474747"/>
<path d="M188.679 436.946L179.541 427.642L190.745 410.511L209.922 378.59C209.295 377.215 209.101 375.682 209.364 374.194C209.628 372.706 210.337 371.333 211.398 370.257C212.459 369.181 213.821 368.452 215.305 368.167C216.789 367.882 218.325 368.054 219.709 368.661C221.093 369.268 222.26 370.28 223.056 371.565C223.852 372.849 224.239 374.345 224.167 375.855C224.094 377.364 223.565 378.816 222.649 380.018C221.733 381.22 220.474 382.116 219.038 382.587L203.21 416.665L188.679 436.946Z" fill="#A0616A"/>
<path d="M178.556 458.187C177.484 459.848 175.955 461.166 174.153 461.981C172.351 462.797 170.353 463.077 168.396 462.787C166.534 462.567 164.777 461.809 163.34 460.604C161.903 459.399 160.849 457.801 160.307 456.006C159.908 454.732 159.792 453.386 159.967 452.063C160.141 450.739 160.603 449.469 161.319 448.342C167.431 438.037 178.706 424.428 178.819 424.292L178.998 424.076L198.013 428.196L178.556 458.187Z" fill="#F70909"/>
<path d="M341.233 86.7676L338.996 87.4561L320.135 26.1931C317.239 16.7892 310.727 8.92063 302.03 4.31833C293.334 -0.283967 283.165 -1.24299 273.761 1.65225L143.967 41.613C139.311 43.0466 134.982 45.3832 131.229 48.4896C127.476 51.5959 124.371 55.4111 122.092 59.7173C119.813 64.0235 118.405 68.7364 117.947 73.5869C117.49 78.4374 117.992 83.3305 119.426 87.9869L222.902 424.08C225.797 433.484 232.309 441.353 241.006 445.955C249.703 450.557 259.872 451.516 269.276 448.621L399.07 408.661C408.473 405.765 416.342 399.253 420.944 390.556C425.547 381.859 426.506 371.691 423.611 362.287L352.422 131.064L354.659 130.376L341.233 86.7676Z" fill="#3F3D56"/>
<path d="M278.031 10.4367L261.089 15.6529C262.456 17.3232 263.392 19.3041 263.813 21.4211C264.234 23.5382 264.129 25.7263 263.505 27.7928C262.882 29.8593 261.759 31.7408 260.237 33.2714C258.715 34.8021 256.84 35.935 254.778 36.5703L180.42 59.4633C178.357 60.0983 176.17 60.2162 174.05 59.8066C171.931 59.397 169.945 58.4725 168.267 57.1145C166.589 55.7566 165.271 54.0068 164.429 52.0194C163.586 50.032 163.246 47.868 163.437 45.7179L147.612 50.5898C140.59 52.752 134.714 57.6153 131.277 64.11C127.84 70.6046 127.124 78.1986 129.286 85.2213L232.61 420.822C234.772 427.844 239.635 433.721 246.13 437.158C252.625 440.594 260.218 441.311 267.241 439.148L397.66 398.995C404.683 396.833 410.559 391.97 413.996 385.475C417.433 378.981 418.149 371.387 415.987 364.364L312.663 28.7634C310.501 21.7407 305.637 15.8646 299.143 12.4276C292.648 8.99072 285.054 8.27455 278.031 10.4367Z" fill="white"/>
<path d="M803.141 743.145L498.667 633.698C491.453 631.096 485.566 625.738 482.297 618.801C479.029 611.864 478.645 603.913 481.231 596.694L639.954 155.137C642.557 147.924 647.914 142.037 654.851 138.768C661.789 135.499 669.739 135.116 676.959 137.702L981.433 247.149C988.647 249.751 994.534 255.109 997.802 262.046C1001.07 268.983 1001.45 276.934 998.868 284.153L840.145 725.71C837.543 732.924 832.186 738.81 825.248 742.079C818.311 745.348 810.361 745.731 803.141 743.145Z" fill="#3F3D56"/>
<path d="M809.92 725.971L504.374 616.138C502.15 615.336 500.335 613.685 499.328 611.546C498.32 609.408 498.202 606.957 498.999 604.731L658.773 160.251C659.575 158.027 661.227 156.212 663.365 155.205C665.504 154.197 667.955 154.079 670.18 154.876L975.726 264.709C977.95 265.511 979.765 267.162 980.772 269.301C981.78 271.439 981.898 273.89 981.101 276.116L821.327 720.596C820.525 722.82 818.873 724.635 816.735 725.642C814.596 726.65 812.145 726.768 809.92 725.971Z" fill="white"/>
<path d="M825.042 202.806C826.401 202.806 827.502 201.704 827.502 200.345C827.502 198.986 826.401 197.885 825.042 197.885C823.683 197.885 822.581 198.986 822.581 200.345C822.581 201.704 823.683 202.806 825.042 202.806Z" fill="#474747"/>
<path d="M319.274 267.608C345.224 241.659 345.224 199.586 319.274 173.636C293.324 147.686 251.251 147.686 225.301 173.636C199.351 199.586 199.351 241.659 225.301 267.608C251.251 293.558 293.324 293.558 319.274 267.608Z" fill="#F70909"/>
<path d="M279.245 252.333L246.355 230.021L249.227 225.79L276.456 244.263L296.136 182.699L301.004 184.255L279.245 252.333Z" fill="white"/>
<path d="M799.799 494.134C832.666 461.266 832.666 407.978 799.799 375.111C766.932 342.243 713.643 342.243 680.776 375.111C647.909 407.978 647.909 461.266 680.776 494.134C713.643 527.001 766.932 527.001 799.799 494.134Z" fill="#F70909"/>
<path d="M719.989 470.381L707.903 421.516L714.19 419.963L724.196 460.419L794.862 419.097L798.129 424.684L719.989 470.381Z" fill="white"/>
<path d="M193.976 686.239H205.338L210.743 642.415L193.974 642.416L193.976 686.239Z" fill="#A0616A"/>
<path d="M191.078 682.529L213.453 682.529C217.235 682.529 220.862 684.031 223.536 686.705C226.211 689.379 227.713 693.006 227.713 696.788V697.251L191.079 697.252L191.078 682.529Z" fill="#2F2E41"/>
<path d="M105.51 681.321L116.744 683.019L128.64 640.496L113.913 637.99L105.51 681.321Z" fill="#A0616A"/>
<path d="M103.199 677.22L125.323 680.564C129.062 681.129 132.425 683.157 134.669 686.201C136.913 689.244 137.857 693.055 137.292 696.794L137.222 697.252L100.999 691.777L103.199 677.22Z" fill="#2F2E41"/>
<path d="M171.315 479.644L197.736 473.89L212.555 516.25L213.019 679.82L191.452 679.685L182.436 547.296L124.979 669.626L101.81 666.845L152.317 535.712C152.317 535.712 149.537 512.543 158.341 500.959L156.488 488.912L171.315 479.644Z" fill="#2F2E41"/>
<path d="M146.512 448.498C145.912 446.694 145.848 444.755 146.329 442.915C146.809 441.075 147.814 439.415 149.22 438.135L154.805 433.059L170.549 430.406L180.393 428.617L203.736 486.89L157.787 492.122C154.414 491.394 153.067 489.549 155.03 485.881L146.512 448.498Z" fill="#F70909"/>
<path d="M202.147 438.848L200.833 425.874L220.287 419.508L255.211 406.584C255.581 405.119 256.388 403.801 257.524 402.805C258.66 401.808 260.072 401.18 261.573 401.003C263.073 400.827 264.593 401.11 265.929 401.815C267.265 402.521 268.356 403.615 269.057 404.954C269.758 406.293 270.036 407.813 269.854 409.313C269.672 410.813 269.039 412.223 268.038 413.355C267.038 414.488 265.717 415.29 264.251 415.656C262.785 416.021 261.242 415.933 259.827 415.403L226.168 432.104L202.147 438.848Z" fill="#A0616A"/>
<path d="M180.967 449.098C179.091 449.724 177.074 449.796 175.158 449.306C173.242 448.817 171.508 447.785 170.162 446.336C168.847 445 167.95 443.309 167.581 441.471C167.213 439.632 167.389 437.726 168.088 435.986C168.573 434.743 169.324 433.62 170.288 432.696C171.252 431.772 172.405 431.07 173.669 430.637C184.882 426.417 202.19 422.844 202.363 422.808L202.638 422.752L214.903 437.855L180.967 449.098Z" fill="#F70909"/>
<path d="M163.64 424.828C173.185 424.828 180.922 417.091 180.922 407.546C180.922 398.001 173.185 390.263 163.64 390.263C154.095 390.263 146.357 398.001 146.357 407.546C146.357 417.091 154.095 424.828 163.64 424.828Z" fill="#A0616A"/>
<path d="M149.647 432.167C146.967 432.166 144.29 432.003 141.629 431.678L141.265 431.633L138.481 416.52C137.3 410.113 138.617 403.498 142.16 398.031C145.703 392.564 151.204 388.661 157.535 387.123C157.957 387.016 158.401 387.027 158.817 387.156C159.233 387.285 159.606 387.526 159.894 387.853L160.558 387.622C163.1 386.735 165.792 386.358 168.479 386.512C171.167 386.666 173.798 387.348 176.222 388.518C178.646 389.689 180.816 391.326 182.608 393.335C184.4 395.344 185.778 397.687 186.664 400.229L186.829 400.701L182.398 402.246C181.018 402.727 179.762 403.51 178.722 404.538C177.682 405.566 176.885 406.812 176.387 408.187C175.89 409.562 175.705 411.031 175.846 412.486C175.988 413.941 176.452 415.346 177.205 416.6L181.735 424.141L181.252 424.383C171.475 429.424 160.647 432.091 149.647 432.167Z" fill="#2F2E41"/>
<path d="M382 698.89H1C0.734784 698.89 0.480429 698.784 0.292892 698.597C0.105356 698.409 0 698.155 0 697.89C0 697.624 0.105356 697.37 0.292892 697.183C0.480429 696.995 0.734784 696.89 1 696.89H382C382.265 696.89 382.52 696.995 382.707 697.183C382.895 697.37 383 697.624 383 697.89C383 698.155 382.895 698.409 382.707 698.597C382.52 698.784 382.265 698.89 382 698.89Z" fill="black"/>
<path d="M1057 747.89H676C675.735 747.89 675.48 747.784 675.293 747.597C675.105 747.409 675 747.155 675 746.89C675 746.624 675.105 746.37 675.293 746.183C675.48 745.995 675.735 745.89 676 745.89H1057C1057.27 745.89 1057.52 745.995 1057.71 746.183C1057.89 746.37 1058 746.624 1058 746.89C1058 747.155 1057.89 747.409 1057.71 747.597C1057.52 747.784 1057.27 747.89 1057 747.89Z" fill="black"/>
<path d="M850.07 573.359C850.915 572.652 851.594 571.768 852.06 570.769C852.526 569.77 852.768 568.682 852.768 567.58C852.768 566.478 852.526 565.39 852.059 564.391C851.593 563.393 850.913 562.509 850.068 561.801L844.465 463.179L828.476 466.794L839.046 563.112C837.952 564.61 837.445 566.458 837.622 568.304C837.799 570.151 838.648 571.869 840.006 573.132C841.365 574.395 843.14 575.116 844.995 575.158C846.85 575.2 848.656 574.56 850.07 573.359Z" fill="#9F616A"/>
<path d="M914.993 586.202C914.123 585.525 913.412 584.666 912.91 583.685C912.408 582.704 912.128 581.625 912.088 580.524C912.048 579.422 912.25 578.326 912.68 577.311C913.11 576.297 913.757 575.388 914.576 574.651L916.606 475.891L932.715 478.924L925.639 575.561C926.786 577.019 927.36 578.847 927.25 580.699C927.14 582.551 926.354 584.299 925.042 585.61C923.73 586.922 921.982 587.706 920.13 587.815C918.278 587.924 916.45 587.35 914.993 586.202Z" fill="#9F616A"/>
<path d="M923.517 732.979L936.061 732.978L939.639 703.714L923.515 703.715L923.517 732.979Z" fill="#9F616A"/>
<path d="M920.317 728.883L945.021 728.882H945.023C949.198 728.882 953.202 730.541 956.155 733.493C959.107 736.446 960.766 740.45 960.766 744.625V745.137L920.318 745.139L920.317 728.883Z" fill="#2F2E41"/>
<path d="M845.24 732.979L857.784 732.978L861.362 684.593H845.238L845.24 732.979Z" fill="#9F616A"/>
<path d="M842.04 728.883L866.745 728.882C870.92 728.882 874.925 730.541 877.878 733.493C880.83 736.446 882.489 740.45 882.489 744.625V745.137L842.041 745.139L842.04 728.883Z" fill="#2F2E41"/>
<path d="M895.772 420.632C907.107 420.632 916.295 411.444 916.295 400.109C916.295 388.775 907.107 379.586 895.772 379.586C884.438 379.586 875.25 388.775 875.25 400.109C875.25 411.444 884.438 420.632 895.772 420.632Z" fill="#9F616A"/>
<path d="M921.856 447.467C921.856 447.467 930.977 448.227 931.737 452.787C932.497 457.348 931.737 471.03 931.737 471.03C931.737 471.03 937.818 489.272 931.737 493.833C925.656 498.393 909.694 499.153 909.694 499.153L921.856 447.467Z" fill="black"/>
<path d="M844.325 550.84L835.964 564.522C835.964 564.522 839.005 624.57 839.765 626.09C840.368 626.983 840.638 628.059 840.525 629.131V637.492L842.805 710.462C842.805 710.462 836.724 713.502 844.325 715.782C851.926 718.063 861.808 718.823 863.328 711.222C864.848 703.621 864.92 640.298 864.848 638.252L865.608 635.212L877.77 590.366L905.893 652.694L922.616 722.623C922.616 722.623 947.924 725.546 943.363 715.664C938.803 705.783 927.936 632.171 927.936 632.171C927.936 632.171 925.656 624.57 925.656 623.05C925.656 621.53 924.896 620.77 924.896 619.249C924.896 617.729 924.136 613.169 924.136 613.169L918.815 565.282L844.325 550.84Z" fill="#2F2E41"/>
<path d="M851.926 434.545C851.926 434.545 842.805 433.785 840.525 441.386C838.244 448.987 819.242 477.871 823.042 480.911C826.843 483.951 855.727 494.593 856.487 493.833C857.247 493.073 851.926 434.545 851.926 434.545Z" fill="black"/>
<path d="M919.671 387.022C918.81 383.816 917.596 380.611 915.123 378.397C912.617 376.169 909.402 374.903 906.05 374.823C902.225 372.607 897.932 371.321 893.519 371.071C889.105 370.821 884.695 371.612 880.644 373.383C880.206 372.497 879.497 371.775 878.62 371.32C878.376 373.43 878.132 375.541 877.888 377.652C876.945 376.942 876.003 376.233 875.06 375.523C875.013 376.772 874.967 378.022 874.92 379.271C874.056 378.528 873.192 377.785 872.328 377.042C872.144 381.466 875.825 385.296 879.988 386.804C884.151 388.312 888.716 388.034 893.138 387.825C895.322 387.721 897.81 387.759 899.284 389.374C900.828 391.065 900.537 393.659 900.575 395.949C900.628 399.17 903.935 397.592 905.593 400.354C906.307 401.269 906.752 402.364 906.879 403.517C906.723 404.564 906.343 405.565 905.767 406.452C904.546 408.973 902.118 416.819 903.277 419.369C905.422 418.169 907.567 416.969 909.712 415.768C909.712 415.768 923.84 402.542 919.671 387.022Z" fill="#2F2E41"/>
<path d="M915.775 491.552C915.775 491.552 930.977 452.787 930.217 449.747C929.457 446.706 910.491 434.231 910.491 434.231C909.769 434.141 909.083 434.055 908.392 433.968C908.495 433.7 908.565 433.42 908.6 433.135L908.926 430.159C909.027 429.235 908.757 428.31 908.176 427.585C907.594 426.86 906.749 426.396 905.825 426.295L881.725 423.653C880.801 423.551 879.875 423.821 879.151 424.403C878.426 424.984 877.962 425.83 877.861 426.753L877.579 429.327C876.307 429.012 876.249 428.888 876.249 428.888C876.249 428.888 854.967 432.264 849.646 433.785C844.325 435.305 848.886 493.073 848.886 493.073C848.886 493.073 845.085 546.28 842.805 547.8C840.525 549.32 842.805 548.56 840.525 554.641C840.224 555.443 844.424 550.965 846.226 551.98C858.085 558.667 906.178 574.303 918.055 573.643C921.852 534.014 914.254 521.196 914.254 521.196L915.775 491.552Z" fill="black"/>
</g>
<defs>
<clipPath id="clip0_215_2">
<rect width="1058" height="747.89" fill="white"/>
</clipPath>
</defs>
</svg>
