<svg width="960" height="540" viewBox="0 0 960 540" fill="none" xmlns="http://www.w3.org/2000/svg">
<g clip-path="url(#clip0_216_63)">
<path fill-rule="evenodd" clip-rule="evenodd" d="M-174 0L-119.686 68.6371C-65.3729 134.907 40.8927 272.181 149.52 272.181C258.147 272.181 366.774 134.907 473.04 68.6371C581.667 0 690.294 0 796.559 33.1351C905.186 68.6371 1013.81 134.907 1122.44 215.378C1228.71 295.849 1337.33 385.788 1445.96 409.456C1552.23 430.757 1660.85 385.788 1769.48 340.819C1878.11 295.849 1984.37 248.514 2038.69 227.212L2093 203.544V613H2038.69C1984.37 613 1878.11 613 1769.48 613C1660.85 613 1552.23 613 1445.96 613C1337.33 613 1228.71 613 1122.44 613C1013.81 613 905.186 613 796.559 613C690.294 613 581.667 613 473.04 613C366.774 613 258.147 613 149.52 613C40.8927 613 -65.3729 613 -119.686 613H-174V0Z" fill="white"/>
</g>
<defs>
<clipPath id="clip0_216_63">
<rect width="960" height="540" fill="white"/>
</clipPath>
</defs>
</svg>
